# File created by Blade
# Date/Time:  Wed Jan 21 16:02:01 2015
# Frame Rate: 120.000 fps
#------------------------------------------------------
:FULLY-SPECIFIED
:DEGREES
503
root 18.830427 32.628990 -17.350214 -173.186669 2.499191 -176.919915
Spine -21.010040 -1.497051 16.047698
Head 13.369354 11.348150 -13.542291
LeftShoulder -24.870334 -49.514581 43.768287
LeftArm 49.504147 -8.265593 6.674620
LeftForeArm 16.890908 0.000000 0.525250
LeftHand 1.986954 0.000000 22.369783
LeftHandThumb1 -26.253704 0.000000 33.147579
RightShoulder -12.208362 -15.504412 2.148346
RightArm 5.940501 -4.698948 64.840484
RightForeArm -27.707384 -0.000000 9.761150
RightHand 2.857101 -0.000000 13.202493
RightHandThumb1 -24.326973 -0.000000 -32.862282
LeftUpLeg 13.758101 1.482117 -17.452926
LeftLeg -2.446553 -0.000000 0.000000
LeftFoot -33.970992 21.122191 -13.086901
LeftToeBase 18.796288 -0.000000 -0.000000
RightUpLeg -18.404536 10.284499 22.198074
RightLeg -3.119071 -0.000000 0.000000
RightFoot -0.357095 -33.400599 -3.844002
RightToeBase 17.880929 -0.000000 -0.000000
504
root 18.843024 32.629116 -17.359306 -173.204011 2.442063 -176.949394
Spine -21.024046 -1.421717 15.842132
Head 13.367576 11.156519 -13.507374
LeftShoulder -24.838695 -49.281229 43.439254
LeftArm 49.223254 -8.159166 6.902399
LeftForeArm 16.768866 -0.000000 0.447294
LeftHand 2.395992 -0.000000 22.986873
LeftHandThumb1 -26.253704 0.000000 33.147579
RightShoulder -12.165644 -15.422730 1.947778
RightArm 5.967020 -4.670623 64.341363
RightForeArm -28.294362 -0.000000 9.509662
RightHand 2.925040 -0.000000 13.882880
RightHandThumb1 -24.326973 -0.000000 -32.862282
LeftUpLeg 13.786310 1.482094 -17.441782
LeftLeg -2.420043 -0.000000 0.000000
LeftFoot -33.973785 21.065944 -13.079516
LeftToeBase 18.696617 -0.000000 -0.000000
RightUpLeg -18.386462 10.257666 22.188281
RightLeg -3.126386 -0.000000 0.000000
RightFoot -0.351945 -33.419141 -3.966145
RightToeBase 18.061014 -0.000000 -0.000000
505
root 18.856453 32.629061 -17.368966 -173.218310 2.367257 -176.979378
Spine -21.045501 -1.348481 15.618705
Head 13.363978 10.972140 -13.413975
LeftShoulder -24.783132 -49.065130 43.093656
LeftArm 48.882353 -8.075048 7.089520
LeftForeArm 16.846187 -0.000000 0.490304
LeftHand 2.389366 -0.000000 23.700168
LeftHandThumb1 -26.253704 0.000000 33.147579
RightShoulder -12.161128 -15.488605 1.783083
RightArm 6.131484 -4.718202 63.775131
RightForeArm -28.854357 -0.000000 9.296927
RightHand 2.969153 -0.000000 14.452634
RightHandThumb1 -24.326973 -0.000000 -32.862282
LeftUpLeg 13.823933 1.437168 -17.435589
LeftLeg -2.411678 -0.000000 0.000000
LeftFoot -33.988336 21.057401 -13.074950
LeftToeBase 18.815544 -0.000000 -0.000000
RightUpLeg -18.373759 10.207672 22.182340
RightLeg -3.133729 -0.000000 0.000000
RightFoot -0.360592 -33.431857 -3.993247
RightToeBase 18.111139 -0.000000 -0.000000
506
root 18.869438 32.629473 -17.377927 -173.235610 2.295376 -177.018505
Spine -21.063490 -1.255023 15.378200
Head 13.367949 10.751348 -13.358170
LeftShoulder -24.672400 -48.779208 42.622972
LeftArm 48.545296 -7.973266 7.382260
LeftForeArm 16.637606 -0.000000 0.448166
LeftHand 2.721029 -0.000000 24.294874
LeftHandThumb1 -26.253704 0.000000 33.147579
RightShoulder -12.131678 -15.505143 1.594018
RightArm 6.208618 -4.734637 63.175931
RightForeArm -29.408495 0.000000 9.147910
RightHand 2.986908 -0.000000 14.988215
RightHandThumb1 -24.326973 -0.000000 -32.862282
LeftUpLeg 13.858833 1.405770 -17.435467
LeftLeg -2.396301 -0.000000 0.000000
LeftFoot -33.986007 21.029895 -13.058805
LeftToeBase 18.835266 -0.000000 -0.000000
RightUpLeg -18.358088 10.174563 22.161224
RightLeg -3.145544 -0.000000 0.000000
RightFoot -0.369355 -33.471783 -4.019117
RightToeBase 18.171485 -0.000000 -0.000000
507
root 18.883088 32.629714 -17.386324 -173.246729 2.229837 -177.041703
Spine -21.064354 -1.120005 15.144321
Head 13.396774 10.572223 -13.257918
LeftShoulder -24.559481 -48.473430 42.137757
LeftArm 48.147655 -7.900881 7.603016
LeftForeArm 16.457652 0.000000 0.436344
LeftHand 3.073412 -0.000000 24.833645
LeftHandThumb1 -26.253704 0.000000 33.147579
RightShoulder -12.179456 -15.510686 1.393910
RightArm 6.340901 -4.956270 62.500584
RightForeArm -29.794969 -0.000000 8.969255
RightHand 2.986629 -0.000000 15.471280
RightHandThumb1 -24.326973 -0.000000 -32.862282
LeftUpLeg 13.862414 1.435523 -17.407102
LeftLeg -2.330761 -0.000000 0.000000
LeftFoot -34.004837 20.950900 -13.015816
LeftToeBase 18.787248 -0.000000 -0.000000
RightUpLeg -18.350340 10.133291 22.143230
RightLeg -3.149580 -0.000000 0.000000
RightFoot -0.465820 -33.370121 -3.869992
RightToeBase 18.137730 -0.000000 -0.000000
508
root 18.896624 32.629761 -17.393436 -173.248260 2.192025 -177.086957
Spine -21.080116 -0.966024 14.868815
Head 13.441610 10.365467 -13.134378
LeftShoulder -24.404446 -48.128853 41.599207
LeftArm 47.702253 -7.843017 7.819849
LeftForeArm 16.294180 -0.000000 0.481113
LeftHand 3.283217 0.000000 25.279798
LeftHandThumb1 -26.253704 0.000000 33.147579
RightShoulder -12.187664 -15.512494 1.206992
RightArm 6.443988 -5.104224 61.758746
RightForeArm -30.096130 0.000000 8.823534
RightHand 2.975142 -0.000000 16.011169
RightHandThumb1 -24.326973 -0.000000 -32.862282
LeftUpLeg 13.901007 1.330627 -17.443207
LeftLeg -2.367324 -0.000000 0.000000
LeftFoot -33.986270 21.016712 -13.048841
LeftToeBase 18.658410 -0.000000 -0.000000
RightUpLeg -18.348068 10.106195 22.137669
RightLeg -3.147324 -0.000000 0.000000
RightFoot -0.441669 -33.472804 -3.981286
RightToeBase 18.219426 -0.000000 -0.000000
509
root 18.913734 32.630016 -17.404285 -173.267755 2.124177 -177.091710
Spine -21.094120 -0.856499 14.655209
Head 13.474025 10.141509 -13.042150
LeftShoulder -24.230209 -47.809527 41.077002
LeftArm 47.123789 -7.678346 8.080098
LeftForeArm 16.075266 0.000000 0.600368
LeftHand 3.405954 -0.000000 25.760915
LeftHandThumb1 -26.253704 0.000000 33.147579
RightShoulder -12.136329 -15.485933 0.954220
RightArm 6.492091 -5.140332 61.027252
RightForeArm -30.622372 0.000000 8.600935
RightHand 3.228643 -0.000000 16.241127
RightHandThumb1 -24.326973 -0.000000 -32.862282
LeftUpLeg 13.955130 1.309035 -17.403984
LeftLeg -2.378258 -0.000000 0.000000
LeftFoot -33.992795 21.011842 -13.002902
LeftToeBase 18.686224 -0.000000 -0.000000
RightUpLeg -18.326723 10.080760 22.156119
RightLeg -3.149957 -0.000000 0.000000
RightFoot -0.445908 -33.508577 -3.961473
RightToeBase 18.259013 -0.000000 -0.000000
510
root 18.929888 32.630073 -17.415279 -173.281069 2.075994 -177.126208
Spine -21.110941 -0.724784 14.383132
Head 13.512374 9.919653 -12.886777
LeftShoulder -24.127474 -47.566959 40.665800
LeftArm 46.540512 -7.374435 8.252147
LeftForeArm 15.869136 0.000000 0.708583
LeftHand 3.491531 -0.000000 26.189479
LeftHandThumb1 -26.253704 0.000000 33.147579
RightShoulder -12.111006 -15.520023 0.719400
RightArm 6.576662 -5.253745 60.234524
RightForeArm -30.981008 -0.000000 8.471465
RightHand 3.243799 -0.000000 16.525790
RightHandThumb1 -24.326973 -0.000000 -32.862282
LeftUpLeg 13.993496 1.310577 -17.398263
LeftLeg -2.374476 -0.000000 0.000000
LeftFoot -33.981330 20.971623 -12.992992
LeftToeBase 18.734210 -0.000000 -0.000000
RightUpLeg -18.311060 10.053227 22.147684
RightLeg -3.146139 -0.000000 0.000000
RightFoot -0.464771 -33.505553 -3.975163
RightToeBase 18.340000 -0.000000 -0.000000
511
root 18.948091 32.630483 -17.426106 -173.303103 2.014580 -177.167493
Spine -21.122807 -0.555807 14.080922
Head 13.569986 9.653048 -12.730790
LeftShoulder -23.924245 -47.407749 40.168389
LeftArm 45.913974 -6.970572 8.496535
LeftForeArm 15.719175 0.000000 0.758478
LeftHand 3.796191 -0.000000 26.346893
LeftHandThumb1 -26.253704 0.000000 33.147579
RightShoulder -12.191105 -15.517056 0.486022
RightArm 6.702144 -5.319346 59.385944
RightForeArm -31.217692 -0.000000 8.278798
RightHand 3.246656 -0.000000 16.950099
RightHandThumb1 -24.326973 -0.000000 -32.862282
LeftUpLeg 14.047839 1.280662 -17.395920
LeftLeg -2.383442 -0.000000 0.000000
LeftFoot -33.970094 20.949282 -12.989396
LeftToeBase 18.637397 -0.000000 -0.000000
RightUpLeg -18.284614 10.005143 22.128603
RightLeg -3.157094 -0.000000 0.000000
RightFoot -0.503016 -33.435333 -3.943793
RightToeBase 18.451037 -0.000000 -0.000000
